<svg width="68" height="77" viewBox="0 0 68 77" fill="none" xmlns="http://www.w3.org/2000/svg">
<path d="M0.846094 77V74C2.04609 73.6667 3.17943 73.1333 4.24609 72.4C5.31276 71.6667 6.27943 70.7 7.14609 69.5C8.01276 68.2333 8.67943 66.7333 9.14609 65C9.67943 63.2667 9.94609 61.2 9.94609 58.8V18.6C9.94609 16.2 9.67943 14.1333 9.14609 12.4C8.67943 10.6667 8.01276 9.19999 7.14609 7.99999C6.27943 6.73333 5.31276 5.73333 4.24609 5C3.17943 4.26667 2.04609 3.73333 0.846094 3.39999V0.399997H38.5461C42.8794 0.399997 46.8128 0.866663 50.3461 1.8C53.9461 2.73333 57.0128 4.2 59.5461 6.2C62.1461 8.13333 64.1461 10.6333 65.5461 13.7C67.0128 16.7667 67.7461 20.4333 67.7461 24.7C67.7461 29.2333 66.9461 32.9667 65.3461 35.9C63.8128 38.8333 61.6794 41.1667 58.9461 42.9C56.2128 44.6333 53.0128 45.8667 49.3461 46.6C45.6794 47.2667 41.7461 47.6 37.5461 47.6H28.7461V58.8C28.7461 61.2 28.9794 63.2667 29.4461 65C29.9128 66.6667 30.5461 68.1 31.3461 69.3C32.1461 70.5 33.0794 71.4667 34.1461 72.2C35.2794 72.9333 36.5128 73.5333 37.8461 74V77H0.846094ZM28.6461 36C28.6461 38.7333 29.2128 40.7333 30.3461 42C31.5461 43.2667 33.7461 43.8333 36.9461 43.7C39.0794 43.6333 40.8461 43 42.2461 41.8C43.7128 40.5333 44.8794 39 45.7461 37.2C46.6128 35.4 47.2128 33.4333 47.5461 31.3C47.8794 29.1 48.0461 27 48.0461 25C48.0461 22.5333 47.7794 20.1 47.2461 17.7C46.7794 15.2333 45.9461 13.0667 44.7461 11.2C43.6128 9.26666 42.1128 7.73333 40.2461 6.59999C38.4461 5.39999 36.2128 4.83333 33.5461 4.9L28.6461 5V36Z" fill="black"/>
</svg>
